/vscmnt/brussel_pixiu_data/_data_brussel/112/vsc11236/PredSimResults/SUBJ06mtu3D/weighted-trackIG/worker_05.mot
version=1
nRows=7
nColumns=50
inDegrees=yes
endheader
                time	         pelvis_tilt	         pelvis_list	     pelvis_rotation	           pelvis_tx	           pelvis_ty	           pelvis_tz	       hip_flexion_r	     hip_adduction_r	      hip_rotation_r	        knee_angle_r	       ankle_angle_r	         mtp_angle_r	       hip_flexion_l	     hip_adduction_l	      hip_rotation_l	        knee_angle_l	       ankle_angle_l	         mtp_angle_l	    lumbar_extension	      lumbar_bending	     lumbar_rotation	 ercspn_r/activation	 intobl_r/activation	 extobl_r/activation	    abd_r/activation	    add_r/activation	hamstrings_r/activation	bifemsh_r/activation	glut_max_r/activation	iliopsoas_r/activation	rect_fem_r/activation	  vasti_r/activation	gastroc_r/activation	 soleus_r/activation	tib_ant_r/activation	 ercspn_l/activation	 intobl_l/activation	 extobl_l/activation	    abd_l/activation	    add_l/activation	hamstrings_l/activation	bifemsh_l/activation	glut_max_l/activation	iliopsoas_l/activation	rect_fem_l/activation	  vasti_l/activation	gastroc_l/activation	 soleus_l/activation	tib_ant_l/activation	
          0.00000000	         -6.98206204	         -4.90756756	         11.02342686	          0.00000000	          0.93357839	         -0.02086963	         27.98085740	          0.29525673	         -6.02356764	          1.36107068	          6.00017477	          0.20453593	         -8.88271527	         -4.95185575	         11.32787007	         -6.65607189	         10.68641319	         27.95836359	         -1.79585193	          2.36362862	         -2.49312917	          0.09851833	          0.18030314	          0.02764314	          0.01000000	          0.08449232	          0.08823336	          0.20937883	          0.00999999	          0.10127827	          0.01000000	          0.00999999	          0.01447706	          0.00999999	          0.26990906	          0.04673940	          0.00999999	          0.00999999	          0.07895022	          0.01000000	          0.01839146	          0.15488523	          0.09142396	          0.46050104	          0.01000002	          0.01000000	          0.36538750	          0.34932514	          0.01537693	
          0.01373024	         -7.12527295	         -4.83110847	         11.04562901	          0.01639664	          0.93131564	         -0.02005142	         28.09492780	          0.48680954	         -5.44174791	         -0.08896768	          5.56505922	          0.21393999	         -9.26159077	         -4.94007605	         10.78897508	         -7.58753818	         10.22793238	         29.71511703	         -1.49628645	          2.66481233	         -2.68473713	          0.08017199	          0.15497264	          0.02249536	          0.00999999	          0.15176707	          0.07862761	          0.17038776	          0.03046000	          0.08241796	          0.01000003	          0.01000000	          0.02280288	          0.01776937	          0.27700029	          0.08009816	          0.00999999	          0.00999999	          0.06424791	          0.04081917	          0.01496656	          0.12604210	          0.07439876	          0.45289730	          0.01000002	          0.01000000	          0.34406909	          0.33650931	          0.01251340	
          0.02746048	         -7.24630071	         -4.74371640	         11.00364065	          0.03331734	          0.92927563	         -0.01915173	         28.02051724	          0.66844378	         -4.85593880	         -1.50694728	          5.08638509	          0.19565599	         -9.56895804	         -4.89735120	         10.20465618	         -8.75287756	          9.63009991	         31.53703711	         -1.16890109	          2.97082394	         -2.85914634	          0.06524216	          0.13787620	          0.01830622	          0.02764938	          0.12350461	          0.07243245	          0.13865772	          0.06450032	          0.06706987	          0.01000000	          0.00999999	          0.01855647	          0.01446031	          0.32515100	          0.08853803	          0.00999999	          0.00999999	          0.05228349	          0.04500068	          0.01217953	          0.10257021	          0.06054404	          0.40989474	          0.01000002	          0.01000000	          0.31679282	          0.31664105	          0.01018312	
          0.04119072	         -7.34708088	         -4.64442690	         10.89448353	          0.05053256	          0.92768621	         -0.01813854	         27.74506300	          0.86525079	         -4.34897651	         -2.58531988	          4.43125561	          0.17678396	         -9.72611067	         -4.81535279	          9.59052173	        -10.24770728	          8.82929719	         33.43055404	         -0.83844219	          3.27663775	         -3.00927283	          0.07566036	          0.11220053	          0.01489719	          0.07236199	          0.11588764	          0.06749902	          0.11283652	          0.09273818	          0.05457994	          0.01000000	          0.00999999	          0.01510083	          0.01176747	          0.36189799	          0.10854766	          0.00999999	          0.00999999	          0.04254712	          0.04009053	          0.01818517	          0.08346932	          0.04926937	          0.38073165	          0.01000010	          0.01000024	          0.28185689	          0.29139415	          0.00999999	
          0.05492096	         -7.42758563	         -4.53095901	         10.72251948	          0.06782140	          0.92673613	         -0.01703162	         27.33845059	          1.07640749	         -3.92137495	         -3.49388091	          3.87398677	          0.14920036	         -9.67301798	         -4.68530011	          8.94505584	        -12.13737504	          7.77506514	         35.35905959	         -0.52424338	          3.58199980	         -3.12967837	          0.07476987	          0.09130625	          0.01212299	          0.10780767	          0.12688127	          0.06320801	          0.09182381	          0.11358070	          0.04441592	          0.01000000	          0.01000000	          0.01228872	          0.01000000	          0.38943971	          0.13260996	          0.00999999	          0.00999999	          0.03462388	          0.05044694	          0.02659084	          0.06792545	          0.04009430	          0.36042777	          0.01000005	          0.01171304	          0.22936876	          0.25130633	          0.00999999	
          0.06865120	         -7.48712617	         -4.40539043	         10.49049518	          0.08499863	          0.92651512	         -0.01586004	         26.84489440	          1.29504615	         -3.56414848	         -4.31568330	          3.51628432	          0.12798039	         -9.35988453	         -4.50504090	          8.25663212	        -14.48168138	          6.47150034	         37.19503662	         -0.24026007	          3.89148159	         -3.21456338	          0.06889674	          0.07430296	          0.00999999	          0.13337430	          0.12218298	          0.06213413	          0.07472414	          0.11938575	          0.03614467	          0.01000000	          0.04378345	          0.01000028	          0.01000000	          0.39789418	          0.14803531	          0.00999999	          0.00999999	          0.02817613	          0.07137674	          0.03761987	          0.05527620	          0.03262783	          0.32780452	          0.01000000	          0.01000000	          0.18665511	          0.20450740	          0.00999999	
          0.08238144	         -7.52631897	         -4.26706542	         10.20168879	          0.10188093	          0.92705550	         -0.01466509	         26.26785269	          1.51154297	         -3.25924364	         -5.02294114	          3.31997011	          0.10905448	         -8.74681919	         -4.27386470	          7.50698087	        -17.32129319	          4.96027748	         38.70065154	         -0.00170498	          4.20785193	         -3.26046882	          0.05907971	          0.06046607	          0.00999999	          0.14313541	          0.09942974	          0.06023801	          0.06080882	          0.11413961	          0.02941372	          0.01000000	          0.09990693	          0.01000000	          0.01000000	          0.39692633	          0.15778753	          0.00999999	          0.01000000	          0.02292910	          0.09160741	          0.04759293	          0.04498260	          0.02655179	          0.28551019	          0.00999999	          0.00999999	          0.15189570	          0.16642349	          0.00999999	
